<svg xmlns="http://www.w3.org/2000/svg" height="620pt" version="1.1" viewBox="0 -10 620 620" width="620pt">
<g id="surface1">
<path d="M 200 80 L 420 80 L 420 100 L 200 100 Z M 200 80 " style=" stroke:none;fill-rule:nonzero;fill:rgb(0%,0%,0%);fill-opacity:1;" />
<path d="M 230 50 L 390 50 L 390 70 L 230 70 Z M 230 50 " style=" stroke:none;fill-rule:nonzero;fill:rgb(0%,0%,0%);fill-opacity:1;" />
<path d="M 200 500 L 420 500 L 420 520 L 200 520 Z M 200 500 " style=" stroke:none;fill-rule:nonzero;fill:rgb(0%,0%,0%);fill-opacity:1;" />
<path d="M 230 530 L 390 530 L 390 550 L 230 550 Z M 230 530 " style=" stroke:none;fill-rule:nonzero;fill:rgb(0%,0%,0%);fill-opacity:1;" />
<path d="M 619.828125 169.171875 C 619.765625 168.492188 619.632812 167.820312 619.429688 167.167969 C 619.109375 165.96875 618.53125 164.851562 617.730469 163.902344 C 617.3125 163.355469 616.835938 162.855469 616.308594 162.421875 C 616.089844 162.230469 615.972656 161.984375 615.734375 161.8125 L 520 94.789062 L 520 10 C 520 4.476562 515.523438 0 510 0 L 110 0 C 104.476562 0 100 4.476562 100 10 L 100 94.789062 L 4.265625 161.792969 C 4.027344 161.957031 3.910156 162.210938 3.679688 162.402344 C 3.160156 162.84375 2.6875 163.335938 2.269531 163.882812 C 1.46875 164.828125 0.890625 165.945312 0.570312 167.148438 C 0.367188 167.804688 0.234375 168.472656 0.171875 169.148438 C 0.0976562 169.429688 0.0429688 169.710938 0 170 L 0 430 C 0 435.523438 4.476562 440 10 440 L 100 440 L 100 590 C 100 595.523438 104.476562 600 110 600 L 510 600 C 515.523438 600 520 595.523438 520 590 L 520 440 L 610 440 C 615.523438 440 620 435.523438 620 430 L 620 170 C 619.957031 169.722656 619.902344 169.445312 619.828125 169.171875 Z M 578.28125 160 L 520 160 L 520 119.210938 Z M 500 20 L 500 160 L 470 160 L 470 120 C 470 114.476562 465.523438 110 460 110 L 160 110 C 154.476562 110 150 114.476562 150 120 L 150 160 L 120 160 L 120 20 Z M 170 160 L 170 130 L 450 130 L 450 160 Z M 100 160 L 41.71875 160 L 100 119.210938 Z M 500 580 L 120 580 L 120 440 L 150 440 L 150 480 C 150 485.523438 154.476562 490 160 490 L 460 490 C 465.523438 490 470 485.523438 470 480 L 470 440 L 500 440 Z M 450 440 L 450 470 L 170 470 L 170 440 Z M 600 420 L 20 420 L 20 180 L 600 180 Z M 600 420 " style=" stroke:none;fill-rule:nonzero;fill:rgb(0%,0%,0%);fill-opacity:1;" />
<path d="M 180 210 C 174.476562 210 170 214.476562 170 220 L 170 340 C 170 356.566406 156.566406 370 140 370 C 123.433594 370 110 356.566406 110 340 C 110 334.476562 105.523438 330 100 330 C 94.476562 330 90 334.476562 90 340 C 90 367.613281 112.386719 390 140 390 C 167.613281 390 190 367.613281 190 340 L 190 220 C 190 214.476562 185.523438 210 180 210 Z M 180 210 " style=" stroke:none;fill-rule:nonzero;fill:rgb(0%,0%,0%);fill-opacity:1;" />
<path d="M 270 210 L 230 210 C 213.433594 210 200 223.433594 200 240 L 200 380 C 200 385.523438 204.476562 390 210 390 C 215.523438 390 220 385.523438 220 380 L 220 310 L 280 310 L 280 380 C 280 385.523438 284.476562 390 290 390 C 295.523438 390 300 385.523438 300 380 L 300 240 C 300 223.433594 286.566406 210 270 210 Z M 220 290 L 220 240 C 220 234.476562 224.476562 230 230 230 L 270 230 C 275.523438 230 280 234.476562 280 240 L 280 290 Z M 220 290 " style=" stroke:none;fill-rule:nonzero;fill:rgb(0%,0%,0%);fill-opacity:1;" />
<path d="M 460 210 C 443.433594 210 430 223.433594 430 240 L 430 380 C 430 385.523438 434.476562 390 440 390 C 445.523438 390 450 385.523438 450 380 L 450 310 L 510 310 L 510 380 C 510 385.523438 514.476562 390 520 390 C 525.523438 390 530 385.523438 530 380 L 530 240 C 530 223.433594 516.566406 210 500 210 Z M 510 240 L 510 290 L 450 290 L 450 240 C 450 234.476562 454.476562 230 460 230 L 500 230 C 505.523438 230 510 234.476562 510 240 Z M 510 240 " style=" stroke:none;fill-rule:nonzero;fill:rgb(0%,0%,0%);fill-opacity:1;" />
<path d="M 412.421875 210.296875 C 407.066406 208.964844 401.640625 212.21875 400.296875 217.570312 L 370 338.769531 L 339.703125 217.570312 C 338.324219 212.25 332.921875 209.03125 327.585938 210.371094 C 322.257812 211.703125 319.003906 217.089844 320.296875 222.429688 L 360.296875 382.429688 C 361.414062 386.878906 365.414062 390 370 390 C 374.585938 390 378.585938 386.878906 379.703125 382.429688 L 419.703125 222.429688 C 421.039062 217.070312 417.78125 211.636719 412.421875 210.296875 Z M 412.421875 210.296875 " style=" stroke:none;fill-rule:nonzero;fill:rgb(0%,0%,0%);fill-opacity:1;" />
</g>
</svg>