<?xml version="1.0" encoding="iso-8859-1"?>
<!-- Generator: Adobe Illustrator 19.0.0, SVG Export Plug-In . SVG Version: 6.00 Build 0)  -->
<svg version="1.1" id="Layer_1" xmlns="http://www.w3.org/2000/svg" xmlns:xlink="http://www.w3.org/1999/xlink" x="0px" y="0px"
	 viewBox="0 0 512.007 512.007" style="enable-background:new 0 0 512.007 512.007;" xml:space="preserve">
<g transform="translate(0 -1)">
	<g>
		<g>
			<path d="M503.47,188.741h-93.867v-76.8c0-0.089-0.011-0.176-0.013-0.265c-0.004-0.112-0.009-0.222-0.017-0.334
				c-0.024-0.339-0.063-0.673-0.125-1c-0.005-0.027-0.007-0.054-0.012-0.081c-0.074-0.371-0.178-0.731-0.299-1.083
				c-0.025-0.073-0.052-0.144-0.079-0.216c-0.123-0.33-0.262-0.651-0.423-0.961c-0.013-0.026-0.024-0.053-0.038-0.078
				c-0.177-0.331-0.379-0.645-0.597-0.948c-0.05-0.069-0.101-0.137-0.153-0.205c-0.232-0.303-0.476-0.596-0.745-0.865L304.703,3.508
				c-0.268-0.268-0.56-0.511-0.862-0.742c-0.072-0.055-0.144-0.11-0.217-0.163c-0.296-0.212-0.603-0.41-0.926-0.584
				c-0.052-0.028-0.105-0.049-0.157-0.076c-0.275-0.14-0.558-0.264-0.849-0.375c-0.103-0.039-0.205-0.078-0.309-0.113
				c-0.325-0.109-0.655-0.206-0.996-0.275c-0.105-0.022-0.211-0.031-0.316-0.048c-0.24-0.04-0.483-0.072-0.73-0.091
				c-0.163-0.013-0.325-0.021-0.488-0.025c-0.061-0.001-0.121-0.009-0.182-0.009H8.537c-4.71,0-8.533,3.823-8.533,8.533v494.933
				c0,4.71,3.823,8.533,8.533,8.533H401.07c4.71,0,8.533-3.823,8.533-8.533v-93.867h93.867c4.71,0,8.533-3.823,8.533-8.533v-204.8
				C512.004,192.564,508.181,188.741,503.47,188.741z M307.204,30.14l73.267,73.267h-73.267V30.14z M392.537,495.941H17.07V18.074
				h273.067v93.867c0,4.71,3.823,8.533,8.533,8.533h93.867v68.267H128.004c-4.71,0-8.533,3.823-8.533,8.533v204.8
				c0,4.71,3.823,8.533,8.533,8.533h264.533V495.941z M494.937,393.541h-358.4V205.807h358.4V393.541z"/>
			<path d="M196.27,239.941c14.114,0,25.6,11.486,25.6,25.6c0,4.71,3.823,8.533,8.533,8.533s8.533-3.823,8.533-8.533
				c0-23.526-19.14-42.667-42.667-42.667c-23.526,0-42.667,19.14-42.667,42.667c0,23.526,19.14,42.667,42.667,42.667
				c14.114,0,25.6,11.486,25.6,25.6c0,14.114-11.486,25.6-25.6,25.6s-25.6-11.486-25.6-25.6c0-4.71-3.823-8.533-8.533-8.533
				c-4.71,0-8.533,3.823-8.533,8.533c0,23.526,19.14,42.667,42.667,42.667c23.526,0,42.667-19.14,42.667-42.667
				c0-23.526-19.14-42.667-42.667-42.667c-14.114,0-25.6-11.486-25.6-25.6C170.67,251.426,182.156,239.941,196.27,239.941z"/>
			<path d="M375.47,291.141c0-37.641-26.795-68.267-59.733-68.267s-59.733,30.626-59.733,68.267
				c0,37.641,26.795,68.267,59.733,68.267c4.218,0,8.332-0.509,12.305-1.464c5.727,11.124,17.333,18.531,30.362,18.531
				c4.71,0,8.533-3.823,8.533-8.533s-3.823-8.533-8.533-8.533c-6.045,0-11.47-3.186-14.51-8.08
				C362.671,339.807,375.47,317.152,375.47,291.141z M273.07,291.141c0-28.237,19.14-51.2,42.667-51.2
				c23.526,0,42.667,22.963,42.667,51.2c0,22.237-11.874,41.195-28.409,48.251c-0.003,0.001-0.007,0.003-0.01,0.004
				c-4.458,1.901-9.252,2.945-14.247,2.945C292.211,342.341,273.07,319.377,273.07,291.141z"/>
			<path d="M392.537,231.407v136.533c0,4.71,3.823,8.533,8.533,8.533h68.267c4.71,0,8.533-3.823,8.533-8.533
				s-3.823-8.533-8.533-8.533h-59.733v-128c0-4.71-3.823-8.533-8.533-8.533S392.537,226.697,392.537,231.407z"/>
		</g>
	</g>
</g>
<g>
</g>
<g>
</g>
<g>
</g>
<g>
</g>
<g>
</g>
<g>
</g>
<g>
</g>
<g>
</g>
<g>
</g>
<g>
</g>
<g>
</g>
<g>
</g>
<g>
</g>
<g>
</g>
<g>
</g>
</svg>
